<svg xmlns="http://www.w3.org/2000/svg" viewBox="0 0 1004 141.46"><defs><style>.cls-1{fill:#d40511;}</style></defs><g id="圖層_2" data-name="圖層 2"><g id="圖層_1-2" data-name="圖層 1"><path class="cls-1" d="M0,127.18H120.2l-6.91,9.67H0Z"/><path class="cls-1" d="M1003.31,136.85H856.17l7.6-9.67H1004v9.67Z"/><path class="cls-1" d="M0,109.22H134l-7.6,9.67H0Z"/><path class="cls-1" d="M0,91.26H147.83l-7.6,9.67H0Z"/><path class="cls-1" d="M1003.31,118.89H870l7.6-9.67H1004v9.67Z"/><path class="cls-1" d="M890.71,91.26h112.6v9.67H883.11Z"/><path class="cls-1" d="M201.46,46.67,235.54.38H326L292,46.67Z"/><path class="cls-1" d="M332.71,46.67,366.79.38H458L423.9,46.67Z"/><path class="cls-1" d="M356.77,138.54H265.58l34.08-46.28H258.9l-34.08,46.28H133.63l59-80.82H415.11Z"/><polygon class="cls-1" points="592.32 81.07 546.89 141.46 513.06 141.46 450.74 141.46 511.18 61.11 607.33 61.11 592.32 81.07"/><path class="cls-1" d="M668,138.39c-14.33,0-29.2-.09-43.28-.12h-3.85L652,96.05l7.64-10.36,18.55-25.13L722.32.73l31.13,0C790.31.63,843,.46,869,0c47,0,32,29.21,21.41,43.58-.92,1.25-1.82,2.39-2.63,3.39H782.12C769,47,766,51.85,762.92,55.3l-1.37,1.87c-4.25,5.75-10.86,14.59-14.49,19.55a20.37,20.37,0,0,1-2.54,3.37h0l-11.68,16h24.93c9,0,14.1-3.45,17.46-9,4-5.53,11.81-15.89,15.86-21.42,2-2.76,6.07-8.29,19.19-8.29H824.1a26.06,26.06,0,0,1,3.2-.2h54.14l-6.37,8.77-22,30.23-25.77,35.49-.1-.07a19,19,0,0,1-7.47,6,17.81,17.81,0,0,1-3.35,1.12H742.15q-3.27.22-6.44.22c-4.68-.08-10.71-.15-17.71-.21h-1.69l-8.81-.07C695.7,138.51,682.09,138.44,668,138.39Z"/><path class="cls-1" d="M460.2,46.28,494.28,0h91.19L551.39,46.28Z"/><path class="cls-1" d="M523.2,46.28,557.28,0h91.19L614.39,46.28Z"/><path class="cls-1" d="M560.2,46.28,594.28,0h91.19L651.39,46.28Z"/></g></g></svg>